<?xml version="1.0" standalone="no"?>
<!DOCTYPE svg PUBLIC "-//W3C//DTD SVG 1.1//EN" "http://www.w3.org/Graphics/SVG/1.1/DTD/svg11.dtd" >
<svg xmlns="http://www.w3.org/2000/svg">
<metadata></metadata>
<defs>
<font id="sf_arborcrest_mediumregular" horiz-adv-x="342" >
<font-face units-per-em="2048" ascent="1638" descent="-410" />
<missing-glyph horiz-adv-x="746" />
<glyph horiz-adv-x="2048" />
<glyph horiz-adv-x="2048" />
<glyph unicode="&#xd;" horiz-adv-x="2048" />
<glyph unicode=" "  horiz-adv-x="746" />
<glyph unicode="&#x09;" horiz-adv-x="746" />
<glyph unicode="&#xa0;" horiz-adv-x="746" />
<glyph unicode="!" horiz-adv-x="307" d="M66 0v170h170v-170h-170zM66 1366h170l-17 -1024h-137z" />
<glyph unicode="&#x22;" horiz-adv-x="570" d="M72 1366h170l-35 -342h-103zM328 1366h170l-35 -342h-102z" />
<glyph unicode="#" horiz-adv-x="1001" d="M49 649v170h179l18 189h-197v169h211l16 189h170l-16 -189h188l17 189h170l-17 -189h164v-169h-178l-16 -189h194v-170h-210l-15 -189h-172l17 189h-189l-14 -189h-172l16 189h-164zM400 819h186l18 189h-188z" />
<glyph unicode="$" horiz-adv-x="1165" d="M37 981q0 180 145 283q121 83 316 98v174h170v-174q379 -31 448 -278l-166 -44q-39 137 -282 152v-428q196 -17 315 -96q145 -103 145 -283q0 -184 -145 -283q-121 -83 -315 -98v-171h-170v171q-378 31 -447 278l164 44q41 -137 283 -152v426q-196 14 -316 98 q-145 103 -145 283zM207 981q0 -190 291 -209v420q-291 -21 -291 -211zM668 174q290 21 290 211q0 189 -290 209v-420z" />
<glyph unicode="%" horiz-adv-x="1335" d="M70 0l973 1366h221l-973 -1366h-221zM70 1008q0 358 272 358t272 -358q0 -359 -272 -359t-272 359zM224 981q0 -84 18 -123q24 -55 100 -55t102 57q16 41 16 125v45q0 82 -16 123q-29 60 -102 60q-75 0 -102 -60q-16 -41 -16 -127v-45zM717 358q0 359 274 359 q273 0 273 -359q0 -358 -273 -358q-274 0 -274 358zM870 334q0 -84 21 -123q25 -58 100 -58q76 0 103 58q16 44 16 125v45q0 81 -16 125q-27 57 -103 57q-73 0 -102 -59q-19 -38 -19 -127v-43z" />
<glyph unicode="&#x26;" horiz-adv-x="1227" d="M64 385q0 244 210 303q-176 66 -176 293q0 385 478 385h85q360 0 449 -224l-170 -44q-62 98 -293 98q-176 0 -251 -23q-128 -47 -128 -192q0 -213 273 -213h632v-170h-85v-213q0 -385 -478 -385h-69q-477 0 -477 385zM234 385q0 -139 110 -184q65 -31 230 -31 q159 0 231 29q113 45 113 186v213h-377q-144 0 -211 -37q-96 -47 -96 -176z" />
<glyph unicode="'" horiz-adv-x="291" d="M58 1366h170l-35 -342h-103z" />
<glyph unicode="(" horiz-adv-x="434" d="M45 682q0 259 37 438q36 182 133 416h170q-97 -234 -133 -416q-37 -179 -37 -438q0 -128 9 -236.5t28 -199.5q18 -94 51.5 -194.5t81.5 -218.5h-170q-48 118 -81.5 218.5t-51.5 194.5q-19 91 -28 199.5t-9 236.5z" />
<glyph unicode=")" horiz-adv-x="434" d="M47 -167q48 118 81.5 218.5t51.5 194.5q19 91 28 199.5t9 236.5q0 259 -37 438q-37 182 -133 416h170q51 -118 83.5 -220.5t49.5 -195.5q37 -179 37 -438q0 -128 -9 -236.5t-28 -199.5q-16 -94 -49 -194.5t-84 -218.5h-170z" />
<glyph unicode="*" horiz-adv-x="762" d="M43 928l166 96l-166 98l84 146l168 -95v193h170v-193l168 95l86 -146l-168 -98l168 -96l-86 -148l-168 97v-195h-170v195l-168 -97z" />
<glyph unicode="+" horiz-adv-x="723" d="M21 512v170h255v256h170v-256h257v-170h-257v-256h-170v256h-255z" />
<glyph unicode="," horiz-adv-x="291" d="M58 170h170l-35 -337h-103z" />
<glyph unicode="-" horiz-adv-x="848" d="M82 512v170h682v-170h-682z" />
<glyph unicode="." d="M82 0v170h170v-170h-170z" />
<glyph unicode="/" horiz-adv-x="633" d="M12 -115l442 1645l166 -46l-442 -1645z" />
<glyph unicode="0" horiz-adv-x="1215" d="M62 682q0 302 118 477q138 207 426 207q287 0 428 -207q119 -176 119 -477q0 -300 -119 -475q-141 -207 -428 -207q-288 0 -426 207q-118 175 -118 475zM232 682q0 -512 374 -512q377 0 377 512t-377 512q-374 0 -374 -512z" />
<glyph unicode="1" d="M82 0v1366h170v-1366h-170z" />
<glyph unicode="2" horiz-adv-x="1149" d="M64 1084q42 153 204 222q132 60 310 60q512 0 512 -418q0 -239 -144 -338q-115 -82 -368 -82q-133 0 -228 -94q-96 -92 -96 -221v-43h836v-170h-1006v213q0 209 144 346q143 142 350 142q184 0 245 32q97 52 97 215q0 146 -105 205q-79 41 -237 41q-305 0 -348 -154z" />
<glyph unicode="3" horiz-adv-x="1202" d="M56 226l170 42q56 -98 280 -98h153q138 0 211 35q96 49 96 180q0 128 -96 178q-72 35 -211 35h-161v170q229 0 280 14q154 39 154 199q0 133 -94 178q-76 35 -214 35q-156 0 -198 -6q-119 -19 -166 -90l-170 44q92 224 451 224h83q480 0 480 -385q0 -226 -178 -293 q210 -62 210 -303q0 -385 -477 -385h-153q-362 0 -450 226z" />
<glyph unicode="4" horiz-adv-x="1169" d="M12 256v170l682 940h256v-940h172v-170h-172v-256h-170v256h-768zM224 426h556v768z" />
<glyph unicode="5" horiz-adv-x="1147" d="M56 598l137 768h765v-172h-622l-58 -324q128 68 306 68q211 0 356 -127q156 -137 156 -342q0 -210 -154 -340q-147 -129 -358 -129h-35q-136 0 -248 58q-120 55 -193 166l178 48q103 -102 298 -102q137 0 237 80q105 81 105 219q0 135 -107 221q-98 78 -235 78h-35 q-109 0 -195 -49q-96 -56 -128 -149z" />
<glyph unicode="6" horiz-adv-x="1173" d="M60 682q0 302 118 477q138 207 426 207q347 0 478 -297l-164 -45q-92 170 -314 170q-337 0 -368 -396q152 140 368 140q210 0 358 -127q154 -133 154 -342q0 -210 -154 -340q-144 -129 -358 -129q-288 0 -426 207q-118 175 -118 475zM264 469q0 -139 103 -223 q92 -76 237 -76q140 0 238 80q104 81 104 219q0 137 -104 221q-98 78 -238 78q-139 0 -235 -78q-105 -84 -105 -221z" />
<glyph unicode="7" horiz-adv-x="1088" d="M45 1194v172h1024v-172l-708 -1194h-214l709 1194h-811z" />
<glyph unicode="8" horiz-adv-x="1239" d="M64 385q0 241 210 303q-176 68 -176 293q0 385 478 385h85q477 0 477 -385q0 -226 -178 -293q213 -62 213 -303q0 -385 -479 -385h-153q-477 0 -477 385zM234 385q0 -131 96 -180q73 -35 211 -35h153q136 0 214 35q93 49 93 180q0 128 -93 178q-76 35 -214 35h-153 q-139 0 -211 -35q-96 -50 -96 -178zM268 981q0 -129 97 -178q70 -35 211 -35h85q140 0 212 35q95 50 95 178q0 130 -95 180q-66 33 -212 33h-85q-147 0 -211 -33q-97 -49 -97 -180z" />
<glyph unicode="9" horiz-adv-x="1173" d="M56 897q0 208 153 340q142 129 359 129q287 0 425 -207q119 -176 119 -477q0 -300 -119 -475q-138 -207 -425 -207q-348 0 -478 297l164 45q88 -172 314 -172q335 0 370 398q-151 -142 -370 -142q-212 0 -359 129q-153 130 -153 342zM226 897q0 -138 104 -221 q96 -78 238 -78q136 0 237 78q103 84 103 221q0 139 -103 223q-94 74 -237 74q-142 0 -238 -78q-104 -86 -104 -219z" />
<glyph unicode=":" horiz-adv-x="268" d="M82 0v170h170v-170h-170zM82 768v170h170v-170h-170z" />
<glyph unicode=";" horiz-adv-x="307" d="M66 170h170l-35 -337h-103zM66 768v170h170v-170h-170z" />
<glyph unicode="&#x3c;" horiz-adv-x="432" d="M27 682l170 342h170l-170 -342l170 -340h-170z" />
<glyph unicode="=" horiz-adv-x="807" d="M82 342v170h682v-170h-682zM82 682v172h682v-172h-682z" />
<glyph unicode="&#x3e;" horiz-adv-x="430" d="M64 342l170 340l-170 342h170l170 -342l-170 -340h-170z" />
<glyph unicode="?" horiz-adv-x="1088" d="M43 1084q42 152 205 222q130 60 311 60q512 0 512 -418q0 -239 -143 -338q-118 -82 -369 -82q-135 0 -180 -24q-62 -38 -60 -162h-170q0 201 105 284q93 75 305 75q178 0 244 32q96 52 96 215q0 144 -105 203q-76 43 -235 43q-305 0 -350 -154zM149 0v170h170v-170h-170z " />
<glyph unicode="@" horiz-adv-x="1442" d="M56 682q0 283 192 481q191 203 473 203q274 0 471 -203q195 -201 195 -481q0 -173 -70 -303q-92 -164 -244 -164q-75 0 -135 48q-61 49 -74 124q-68 -53 -172 -53q-137 0 -207 82q-69 75 -69 214q0 172 80 282q90 120 254 120q103 0 162 -53l6 53h135l-52 -582 q0 -32 19 -63q18 -39 49 -39q83 0 133 131q35 103 35 203q0 221 -149 379q-151 160 -367 160q-218 0 -369 -160q-149 -158 -149 -379q0 -219 149 -377q151 -160 369 -160h359v-145h-359q-280 0 -473 201q-192 201 -192 481zM553 635q0 -168 148 -168q186 0 186 262 q0 170 -145 170q-189 0 -189 -264z" />
<glyph unicode="A" horiz-adv-x="1278" d="M35 0l496 1366h217l495 -1366h-180l-125 342h-600l-123 -342h-180zM402 512h475l-238 651z" />
<glyph unicode="B" horiz-adv-x="1343" d="M82 0v1366h682q477 0 477 -385q0 -225 -176 -293q211 -61 211 -303q0 -385 -478 -385h-716zM252 170h546q140 0 212 35q96 49 96 180q0 128 -96 178q-72 35 -212 35h-546v-428zM252 768h512q139 0 211 35q96 49 96 178q0 130 -96 180q-65 33 -211 33h-512v-426z" />
<glyph unicode="C" horiz-adv-x="1245" d="M58 682q0 298 147 481q162 203 448 203q401 0 543 -367l-164 -43q-103 238 -379 238q-215 0 -327 -154q-98 -134 -98 -358q0 -223 98 -359q111 -153 327 -153q277 0 379 240l164 -45q-143 -365 -543 -365q-285 0 -448 201q-147 186 -147 481z" />
<glyph unicode="D" horiz-adv-x="1335" d="M82 0v1366h596q286 0 450 -203q148 -182 148 -481q0 -296 -148 -481q-164 -201 -450 -201h-596zM252 170h426q213 0 327 153q101 134 101 359q0 227 -101 358q-115 154 -327 154h-426v-1024z" />
<glyph unicode="E" horiz-adv-x="1069" d="M82 0v1366h938v-172h-768v-426h682v-170h-682v-428h768v-170h-938z" />
<glyph unicode="F" horiz-adv-x="1024" d="M82 0v1366h938v-172h-768v-426h682v-170h-682v-598h-170z" />
<glyph unicode="G" horiz-adv-x="1319" d="M60 682q0 298 147 481q162 203 448 203q199 0 336.5 -93.5t206.5 -273.5l-164 -45q-102 240 -379 240q-215 0 -327 -154q-98 -134 -98 -358q0 -223 98 -359q111 -153 327 -153q189 0 303 123q103 112 122 305h-425v170h599v-768h-170v211q-142 -211 -429 -211 q-285 0 -448 201q-147 186 -147 481z" />
<glyph unicode="H" horiz-adv-x="1274" d="M82 0v1366h170v-598h768v598h170v-1366h-170v598h-768v-598h-170z" />
<glyph unicode="I" d="M82 0v1366h170v-1366h-170z" />
<glyph unicode="J" horiz-adv-x="760" d="M10 27v190q74 -47 170 -47q342 0 342 512v684h170v-684q0 -285 -108 -465q-132 -217 -404 -217q-97 0 -170 27z" />
<glyph unicode="K" horiz-adv-x="1243" d="M80 0v1366h170v-698l698 698h240l-682 -684l682 -682h-240l-563 561l-135 -135v-426h-170z" />
<glyph unicode="L" horiz-adv-x="1020" d="M80 0v1366h170v-1196h768v-170h-938z" />
<glyph unicode="M" horiz-adv-x="1585" d="M80 0v1366h170l542 -1165l543 1165h170v-1366h-170v962l-448 -962h-189l-448 962v-962h-170z" />
<glyph unicode="N" horiz-adv-x="1270" d="M80 0v1366h170l768 -1067v1067h170v-1366h-170l-768 1067v-1067h-170z" />
<glyph unicode="O" horiz-adv-x="1310" d="M58 682q0 298 147 481q162 203 448 203q287 0 451 -203q148 -184 148 -481q0 -294 -148 -481q-164 -201 -451 -201q-285 0 -448 201q-147 186 -147 481zM228 682q0 -228 98 -359q111 -153 327 -153q214 0 328 153q101 134 101 359q0 227 -101 358q-115 154 -328 154 q-212 0 -327 -151q-98 -137 -98 -361z" />
<glyph unicode="P" horiz-adv-x="1286" d="M80 0v1366h716q478 0 478 -385q0 -383 -478 -383h-546v-598h-170zM250 768h546q137 0 209 35q99 49 99 178q0 130 -99 180q-65 33 -209 33h-546v-426z" />
<glyph unicode="Q" horiz-adv-x="1298" d="M39 682q0 298 147 481q162 203 449 203t451 -203q147 -183 147 -481q0 -192 -68 -348q-77 -175 -231 -260l299 -108v-180l-598 214q-286 0 -449 201q-147 186 -147 481zM209 682q0 -223 98 -359q112 -153 328 -153q213 0 327 153q101 134 101 359q0 227 -101 358 q-115 154 -327 154q-216 0 -328 -154q-98 -134 -98 -358z" />
<glyph unicode="R" horiz-adv-x="1339" d="M80 0v1366h716q478 0 478 -385q0 -347 -391 -381l391 -600h-203l-389 598h-432v-598h-170zM250 768h546q140 0 212 35q96 49 96 178q0 130 -96 180q-66 33 -212 33h-546v-426z" />
<glyph unicode="S" horiz-adv-x="1204" d="M56 981q0 206 180 305q145 80 366 80q190 0 318 -58q170 -72 214 -224l-166 -44q-46 154 -366 154q-376 0 -376 -213t376 -213q218 0 364 -80q181 -97 181 -303q0 -205 -181 -305q-146 -80 -364 -80q-189 0 -320 58q-173 72 -212 224l164 44q43 -156 368 -156 q375 0 375 215q0 213 -375 213q-221 0 -366 80q-180 97 -180 303z" />
<glyph unicode="T" horiz-adv-x="1075" d="M25 1194v172h1024v-172h-427v-1194h-172v1194h-425z" />
<glyph unicode="U" horiz-adv-x="1331" d="M68 682v684h170v-684q0 -223 98 -359q111 -153 327 -153q214 0 328 153q101 134 101 359v684h170v-684q0 -296 -148 -481q-164 -201 -451 -201q-285 0 -448 201q-147 186 -147 481z" />
<glyph unicode="V" horiz-adv-x="1274" d="M33 1366h180l424 -1163l424 1163h180l-495 -1366h-218z" />
<glyph unicode="W" horiz-adv-x="1845" d="M54 1366h176l301 -1130l302 1130h179l300 -1130l304 1130h176l-364 -1366h-230l-276 1034l-277 -1034h-227z" />
<glyph unicode="X" horiz-adv-x="1335" d="M66 0l497 682l-497 684h210l392 -539l389 539h213l-498 -684l498 -682h-211l-391 539l-392 -539h-210z" />
<glyph unicode="Y" horiz-adv-x="1256" d="M25 1366h211l390 -539l390 539h213l-516 -711v-655h-170v655z" />
<glyph unicode="Z" horiz-adv-x="1237" d="M64 0v170l878 1024h-878v172h1109v-172l-880 -1024h880v-170h-1109z" />
<glyph unicode="[" horiz-adv-x="547" d="M82 -167v1703h426v-170h-256v-1366h256v-167h-426z" />
<glyph unicode="\" horiz-adv-x="633" d="M12 1484l166 46l442 -1645l-166 -46z" />
<glyph unicode="]" horiz-adv-x="547" d="M37 0h256v1366h-256v170h426v-1703h-426v167z" />
<glyph unicode="^" horiz-adv-x="803" d="M43 1142l256 224h205l256 -224h-205l-153 122l-154 -122h-205z" />
<glyph unicode="_" horiz-adv-x="1020" d="M82 0h854v-167h-854v167z" />
<glyph unicode="`" horiz-adv-x="487" d="M10 1706h238l204 -256h-118z" />
<glyph unicode="a" horiz-adv-x="997" d="M62 512q0 229 96 361q109 151 329 151q187 0 273 -125v125h154v-1024h-154v123q-52 -75 -119 -100q-60 -23 -154 -23q-220 0 -329 151q-96 132 -96 361zM215 512q0 -359 272 -359q273 0 273 359q0 358 -273 358q-272 0 -272 -358z" />
<glyph unicode="b" horiz-adv-x="960" d="M82 0v1366h154v-467q84 125 272 125q218 0 330 -151q96 -134 96 -361q0 -229 -96 -361q-112 -151 -330 -151q-90 0 -154 23q-68 26 -118 100v-123h-154zM236 512q0 -359 272 -359t272 359q0 358 -272 358t-272 -358z" />
<glyph unicode="c" horiz-adv-x="910" d="M60 512q0 229 96 361q109 151 329 151q272 0 373 -224l-151 -40q-68 110 -222 110q-272 0 -272 -358q0 -359 272 -359q154 0 222 111l149 -43q-104 -221 -371 -221q-220 0 -329 151q-96 132 -96 361z" />
<glyph unicode="d" horiz-adv-x="962" d="M27 512q0 229 96 361q111 151 329 151q187 0 273 -125v467h154v-1366h-154v123q-52 -75 -119 -100q-60 -23 -154 -23q-218 0 -329 151q-96 132 -96 361zM180 512q0 -359 272 -359q273 0 273 359q0 358 -273 358q-272 0 -272 -358z" />
<glyph unicode="e" horiz-adv-x="966" d="M62 512q0 229 96 361q109 151 329 151q221 0 330 -151q97 -131 97 -361v-37q0 -10 -0.5 -19.5t-1.5 -19.5h-695q25 -283 270 -283q157 0 222 113l151 -40q-103 -226 -373 -226q-220 0 -329 151q-96 132 -96 361zM217 590h541q-28 280 -271 280q-242 0 -270 -280z" />
<glyph unicode="f" horiz-adv-x="568" d="M35 614v154h86v86q0 227 96 361q112 151 330 151v-153h-2q-271 0 -271 -359v-86h170v-154h-170v-614h-153v614h-86z" />
<glyph unicode="g" horiz-adv-x="985" d="M58 512q0 227 95 361q112 151 330 151q190 0 273 -125v125h154v-854q0 -227 -97 -358q-109 -151 -330 -151q-270 0 -371 224l152 40q65 -110 219 -110q245 0 271 303q-85 -118 -271 -118q-218 0 -330 151q-95 133 -95 361zM211 512q0 -359 272 -359q273 0 273 359 q0 358 -273 358q-272 0 -272 -358z" />
<glyph unicode="h" horiz-adv-x="966" d="M82 0v1366h154v-467q81 125 272 125q218 0 330 -151q96 -134 96 -361v-512h-154v512q0 358 -272 358t-272 -358v-512h-154z" />
<glyph unicode="i" horiz-adv-x="309" d="M74 0v1024h154v-1024h-154zM74 1177v154h154v-154h-154z" />
<glyph unicode="j" horiz-adv-x="307" d="M74 -339v1363h154v-1363h-154zM74 1177v154h154v-154h-154z" />
<glyph unicode="k" horiz-adv-x="944" d="M82 0v1366h154v-825l483 483h215l-512 -512l512 -512h-215l-406 404l-77 -81v-323h-154z" />
<glyph unicode="l" horiz-adv-x="326" d="M82 0v1366h154v-1366h-154z" />
<glyph unicode="m" horiz-adv-x="1507" d="M82 0v1024h154v-96q66 96 220 96q228 0 300 -178q70 178 299 178q215 0 307 -158q68 -122 68 -354v-512h-154v512q0 171 -28 242q-48 116 -193 116q-143 0 -193 -116q-31 -69 -31 -242v-512h-153v512q0 166 -29 242q-47 116 -193 116q-142 0 -192 -116q-28 -74 -28 -242 v-512h-154z" />
<glyph unicode="n" horiz-adv-x="1005" d="M82 0v1024h154v-125q81 125 272 125q218 0 330 -151q96 -134 96 -361v-512h-154v512q0 358 -272 358t-272 -358v-512h-154z" />
<glyph unicode="o" horiz-adv-x="975" d="M62 512q0 229 96 361q109 151 329 151q221 0 330 -151q97 -131 97 -361t-97 -361q-109 -151 -330 -151q-220 0 -329 151q-96 132 -96 361zM215 512q0 -359 272 -359q273 0 273 359q0 358 -273 358q-272 0 -272 -358z" />
<glyph unicode="p" horiz-adv-x="958" d="M82 -339v1363h154v-123q50 74 118 100q64 23 154 23q218 0 330 -151q96 -134 96 -361q0 -229 -96 -361q-112 -151 -330 -151q-188 0 -272 125v-464h-154zM236 512q0 -359 272 -359t272 359q0 358 -272 358t-272 -358z" />
<glyph unicode="q" horiz-adv-x="960" d="M25 512q0 229 96 361q111 151 329 151q94 0 154 -23q67 -25 119 -100v123h154v-1363h-154v464q-86 -125 -273 -125q-218 0 -329 151q-96 132 -96 361zM178 512q0 -359 272 -359q273 0 273 359q0 358 -273 358q-272 0 -272 -358z" />
<glyph unicode="r" horiz-adv-x="522" d="M82 0v1024h154v-125q81 125 272 125v-154q-272 0 -272 -358v-512h-154z" />
<glyph unicode="s" horiz-adv-x="972" d="M60 725q0 299 425 299q337 0 408 -180l-153 -41q-35 56 -134 63q-10 2 -51 3t-111 1q-104 0 -156 -20q-75 -33 -75 -125q0 -84 69 -115q45 -20 146 -20q219 0 322 -41q164 -62 164 -250q0 -299 -429 -299q-338 0 -407 180l154 41q33 -56 135 -63q25 -5 159 -5 q109 0 156 21q78 34 78 125q0 85 -72 117q-45 20 -143 20q-228 0 -324 39q-161 65 -161 250z" />
<glyph unicode="t" horiz-adv-x="570" d="M35 870v154h86v342h153v-342h170v-154h-170v-358q0 -359 270 -359h3v-153q-218 0 -330 151q-96 132 -96 361v358h-86z" />
<glyph unicode="u" horiz-adv-x="1008" d="M72 512v512h154v-512q0 -359 272 -359t272 359v512h154v-1024h-154v125q-83 -125 -272 -125q-221 0 -330 151q-96 132 -96 361z" />
<glyph unicode="v" horiz-adv-x="1012" d="M35 1024h162l307 -844l307 844h164l-371 -1024h-198z" />
<glyph unicode="w" horiz-adv-x="1468" d="M56 1024h157l221 -823l221 823h158l221 -823l222 823h157l-275 -1024h-208l-194 729l-197 -729h-211z" />
<glyph unicode="x" horiz-adv-x="1067" d="M66 0l372 512l-372 512h190l277 -383l276 383h190l-373 -512l373 -512h-190l-276 383l-277 -383h-190z" />
<glyph unicode="y" horiz-adv-x="1001" d="M37 1024h162l307 -844l307 844h164l-496 -1363h-164l107 297z" />
<glyph unicode="z" horiz-adv-x="1010" d="M78 0v153l639 717h-639v154h854v-154l-641 -717h641v-153h-854z" />
<glyph unicode="{" horiz-adv-x="668" d="M16 614v138q31 0 61.5 9.5t54.5 27.5t39 43t15 55v172q0 477 426 477v-154q-197 5 -249 -184q-23 -83 -23 -344q0 -70 -51 -121q-50 -51 -119 -51q69 0 119 -51q51 -50 51 -119q0 -263 23 -344q52 -183 249 -181v-154q-426 0 -426 474v170q0 31 -15 56.5t-39 43.5 t-54.5 27.5t-61.5 9.5z" />
<glyph unicode="|" d="M82 -167v1703h170v-1703h-170z" />
<glyph unicode="}" horiz-adv-x="670" d="M56 -13q197 -2 249 181q23 81 23 344q0 69 50 119q49 51 120 51q-71 0 -120 51q-50 53 -50 121q0 261 -23 344q-52 189 -249 184v154q425 0 425 -477v-172q0 -62 58 -101q52 -34 112 -34v-138q-60 0 -112 -34q-58 -39 -58 -103v-170q0 -476 -425 -474v154z" />
<glyph unicode="~" horiz-adv-x="750" d="M68 1075v76q0 43 16.5 82t44.5 68.5t66 47t81 17.5q45 0 99 -62q54 -59 102 -59q139 0 205 121v-76q0 -88 -64 -152q-60 -63 -147 -63q-44 0 -98 59q-56 60 -101 60q-141 0 -204 -119z" />
<glyph unicode="&#xa1;" horiz-adv-x="307" d="M66 -339l16 1021h137l17 -1021h-170zM66 854v170h170v-170h-170z" />
<glyph unicode="&#xa2;" horiz-adv-x="862" d="M39 854q0 202 75 328q89 153 275 178v176h154v-176q203 -27 295 -218l-152 -40q-49 82 -143 102v-700q94 20 143 102l149 -43q-88 -190 -292 -217v-176h-154v176q-184 27 -277 178q-73 130 -73 330zM193 854q0 -305 196 -350v700q-196 -46 -196 -350z" />
<glyph unicode="&#xa5;" horiz-adv-x="1256" d="M25 1366h211l390 -539l390 539h213l-516 -711v-655h-170v655z" />
<glyph unicode="&#xa8;" horiz-adv-x="678" d="M82 1450v172h170v-172h-170zM422 1450v172h172v-172h-172z" />
<glyph unicode="&#xa9;" horiz-adv-x="568" d="M60 256q0 109 52 180q61 76 170 76q108 0 168 -76q56 -73 56 -180q0 -109 -56 -180q-60 -76 -168 -76q-109 0 -170 76q-52 71 -52 180zM102 256q0 -81 47 -146q54 -65 133 -65t132 65q46 64 46 146q0 42 -13 80t-36 67.5t-56 46.5t-73 17t-73 -17t-57 -46.5t-37 -67.5 t-13 -80zM143 256q0 69 36 111.5t99 42.5q91 0 122 -82l-37 -11q-23 54 -85 54q-96 0 -96 -115t96 -115q62 0 85 54l37 -11q-31 -82 -122 -82q-62 0 -100 47q-35 44 -35 107z" />
<glyph unicode="&#xab;" horiz-adv-x="770" d="M49 682l170 342h170l-170 -342l170 -340h-170zM356 682l170 342h170l-170 -342l170 -340h-170z" />
<glyph unicode="&#xad;" horiz-adv-x="848" d="M82 512v170h682v-170h-682z" />
<glyph unicode="&#xae;" horiz-adv-x="568" d="M60 256q0 109 52 180q61 76 170 76q108 0 168 -76q56 -73 56 -180q0 -109 -56 -180q-60 -76 -168 -76q-109 0 -170 76q-52 71 -52 180zM102 256q0 -84 45 -142v284q-45 -59 -45 -142zM158 102q49 -57 124 -57q73 0 126 57h-37l-87 136h-98v-136h-28zM158 410h151 q109 0 109 -87q0 -79 -90 -85l84 -130q48 64 48 148q0 42 -13 80t-36 67.5t-56 46.5t-73 17q-75 0 -124 -57zM186 274h123q70 0 70 49q0 48 -70 48h-123v-97z" />
<glyph unicode="&#xaf;" horiz-adv-x="848" d="M82 1194v172h682v-172h-682z" />
<glyph unicode="&#xb0;" horiz-adv-x="375" d="M58 1237q0 53 36 91q38 38 90 38q53 0 91 -38t38 -91q0 -52 -38 -90q-36 -37 -91 -37q-53 0 -90 37q-36 37 -36 90zM125 1237q0 -60 59 -60q60 0 60 60q0 59 -60 59q-59 0 -59 -59z" />
<glyph unicode="&#xb1;" horiz-adv-x="776" d="M47 0v170h682v-170h-682zM47 598v170h256v256h170v-256h256v-170h-256v-256h-170v256h-256z" />
<glyph unicode="&#xb4;" horiz-adv-x="485" d="M33 1450l205 256h237l-324 -256h-118z" />
<glyph unicode="&#xb6;" horiz-adv-x="1252" d="M33 981q0 385 477 385h684v-172h-172v-1361h-170v1361h-170v-1361h-172v765q-477 0 -477 383z" />
<glyph unicode="&#xb7;" d="M82 598v170h170v-170h-170z" />
<glyph unicode="&#xbb;" horiz-adv-x="768" d="M72 342l170 340l-170 342h170l170 -342l-170 -340h-170zM379 342l170 340l-170 342h170l170 -342l-170 -340h-170z" />
<glyph unicode="&#xbf;" horiz-adv-x="1088" d="M16 78q0 237 144 336q115 82 368 82q135 0 179 24q61 39 61 162h170q0 -203 -107 -286q-94 -73 -303 -73q-180 0 -244 -30q-98 -53 -98 -215q0 -145 105 -202q76 -43 237 -43q303 0 351 154l166 -44q-44 -152 -205 -222q-137 -60 -312 -60q-512 0 -512 417zM768 854v170 h170v-170h-170z" />
<glyph unicode="&#xc0;" horiz-adv-x="1266" d="M35 0l496 1366h217l495 -1366h-180l-125 342h-600l-123 -342h-180zM246 1706h239l205 -256h-118zM402 512h475l-238 651z" />
<glyph unicode="&#xc1;" horiz-adv-x="1264" d="M21 0l495 1366h217l496 -1366h-180l-125 342h-601l-122 -342h-180zM387 512h475l-238 651zM574 1450l204 256h240l-326 -256h-118z" />
<glyph unicode="&#xc2;" horiz-adv-x="1270" d="M31 0l495 1366h218l495 -1366h-180l-125 342h-600l-123 -342h-180zM276 1450l257 223h205l255 -223h-205l-153 121l-154 -121h-205zM398 512h475l-238 651z" />
<glyph unicode="&#xc3;" horiz-adv-x="1294" d="M43 0l496 1366h217l496 -1366h-181l-125 342h-600l-122 -342h-181zM340 1468v74q0 44 16.5 83t45 68.5t67 46.5t82.5 17q42 0 98 -60q56 -59 101 -59q139 0 204 119v-74q0 -87 -63 -151q-61 -64 -145 -64q-46 0 -101 60q-53 59 -100 59q-137 0 -205 -119zM410 512h475 l-238 651z" />
<glyph unicode="&#xc4;" horiz-adv-x="1266" d="M29 0l495 1366h218l495 -1366h-180l-125 342h-600l-123 -342h-180zM377 1450v172h170v-172h-170zM396 512h474l-237 651zM719 1450v172h170v-172h-170z" />
<glyph unicode="&#xc5;" horiz-adv-x="1262" d="M27 0l495 1366h218l495 -1366h-180l-125 342h-600l-123 -342h-180zM394 512h474l-238 651zM504 1579q0 53 37 90t89 37q55 0 92 -37q38 -38 38 -90q0 -51 -38 -92q-37 -37 -92 -37q-52 0 -89 37t-37 92zM572 1579q0 -59 58 -59q60 0 60 59t-60 59q-58 0 -58 -59z" />
<glyph unicode="&#xc6;" horiz-adv-x="1622" d="M31 0l676 1366h850v-172h-597v-426h512v-170h-512v-428h597v-170h-769v426h-366l-213 -426h-178zM508 598h280v565z" />
<glyph unicode="&#xc8;" horiz-adv-x="1022" d="M62 0v1366h937v-172h-767v-426h682v-170h-682v-428h767v-170h-937zM299 1706h240l205 -256h-120z" />
<glyph unicode="&#xc9;" horiz-adv-x="1020" d="M64 0v1366h937v-172h-767v-426h682v-170h-682v-428h767v-170h-937zM301 1450l205 256h240l-324 -256h-121z" />
<glyph unicode="&#xca;" horiz-adv-x="1032" d="M68 0v1366h937v-172h-767v-426h682v-170h-682v-428h767v-170h-937zM170 1450l256 223h204l257 -223h-205l-154 121l-153 -121h-205z" />
<glyph unicode="&#xcb;" horiz-adv-x="1032" d="M70 0v1366h938v-172h-768v-426h682v-170h-682v-428h768v-170h-938zM274 1450v172h170v-172h-170zM614 1450v172h172v-172h-172z" />
<glyph unicode="&#xcc;" horiz-adv-x="516" d="M0 1706h238l204 -256h-119zM272 0v1366h170v-1366h-170z" />
<glyph unicode="&#xcd;" horiz-adv-x="512" d="M70 0v1366h170v-1366h-170zM70 1450l204 256h238l-323 -256h-119z" />
<glyph unicode="&#xce;" horiz-adv-x="740" d="M12 1450l254 223h205l256 -223h-205l-153 121l-154 -121h-203zM284 0v1366h170v-1366h-170z" />
<glyph unicode="&#xcf;" horiz-adv-x="547" d="M19 1450v172h170v-172h-170zM189 0v1366h169v-1366h-169zM358 1450v172h170v-172h-170z" />
<glyph unicode="&#xd1;" horiz-adv-x="1245" d="M68 0v1366h170l767 -1067v1067h170v-1366h-170l-767 1067v-1067h-170zM315 1468v74q0 44 16.5 83t45 68.5t66.5 46.5t81 17q45 0 98 -59q55 -60 103 -60q140 0 205 119v-74q0 -87 -64 -151q-61 -64 -147 -64q-46 0 -101 60q-53 59 -98 59q-140 0 -205 -119z" />
<glyph unicode="&#xd2;" horiz-adv-x="1282" d="M43 682q0 297 148 481q161 203 448 203t451 -203q147 -183 147 -481q0 -295 -147 -481q-164 -201 -451 -201q-286 0 -448 201q-148 187 -148 481zM213 682q0 -228 98 -359q112 -153 328 -153q213 0 327 153q101 134 101 359q0 227 -101 358q-115 154 -327 154 q-213 0 -328 -151q-98 -137 -98 -361zM418 1706h239l205 -256h-120z" />
<glyph unicode="&#xd3;" horiz-adv-x="1280" d="M43 682q0 297 148 481q161 203 448 203t451 -203q147 -183 147 -481q0 -295 -147 -481q-164 -201 -451 -201q-286 0 -448 201q-148 187 -148 481zM213 682q0 -228 98 -359q112 -153 328 -153q213 0 327 153q101 134 101 359q0 227 -101 358q-115 154 -327 154 q-213 0 -328 -151q-98 -137 -98 -361zM418 1450l204 256h240l-325 -256h-119z" />
<glyph unicode="&#xd4;" horiz-adv-x="1288" d="M47 682q0 297 148 481q161 203 448 203t451 -203q147 -183 147 -481q0 -295 -147 -481q-164 -201 -451 -201q-286 0 -448 201q-148 187 -148 481zM217 682q0 -228 98 -359q112 -153 328 -153q213 0 327 153q101 134 101 359q0 227 -101 358q-115 154 -327 154 q-213 0 -328 -151q-98 -137 -98 -361zM284 1450l257 223h205l255 -223h-205l-153 121l-154 -121h-205z" />
<glyph unicode="&#xd5;" horiz-adv-x="1294" d="M49 682q0 297 148 481q161 203 448 203t451 -203q147 -183 147 -481q0 -295 -147 -481q-164 -201 -451 -201q-285 0 -448 201q-148 187 -148 481zM219 682q0 -228 98 -359q112 -153 328 -153q213 0 327 153q101 134 101 359q0 227 -101 358q-115 154 -327 154 q-213 0 -328 -151q-98 -137 -98 -361zM338 1468v74q0 44 16.5 83t45 68.5t67 46.5t82.5 17q45 0 98 -59q55 -60 101 -60q139 0 204 119v-74q0 -43 -16.5 -82t-44.5 -68.5t-66 -47t-81 -17.5q-46 0 -101 60q-53 59 -100 59q-137 0 -205 -119z" />
<glyph unicode="&#xd6;" horiz-adv-x="1290" d="M47 682q0 297 148 481q161 203 448 203t451 -203q147 -183 147 -481q0 -295 -147 -481q-164 -201 -451 -201q-286 0 -448 201q-148 187 -148 481zM217 682q0 -228 98 -359q112 -153 328 -153q213 0 327 153q101 134 101 359q0 227 -101 358q-115 154 -327 154 q-213 0 -328 -151q-98 -137 -98 -361zM387 1450v172h172v-172h-172zM729 1450v172h170v-172h-170z" />
<glyph unicode="&#xd7;" horiz-adv-x="721" d="M58 416l180 182l-180 180l120 121l180 -180l183 180l120 -121l-180 -180l180 -182l-120 -121l-183 182l-180 -182z" />
<glyph unicode="&#xd8;" horiz-adv-x="1312" d="M60 682q0 298 147 481q162 203 448 203q287 0 451 -203q148 -184 148 -481q0 -294 -148 -481q-164 -201 -451 -201q-285 0 -448 201q-147 186 -147 481zM230 682q0 -228 98 -359q111 -153 327 -153q214 0 328 153q101 134 101 359q0 227 -101 358q-115 154 -328 154 q-212 0 -327 -151q-98 -137 -98 -361z" />
<glyph unicode="&#xd9;" horiz-adv-x="1298" d="M51 682v684h170v-684q0 -223 98 -359q112 -153 328 -153q214 0 328 153q100 131 100 359v684h170v-684q0 -295 -147 -481q-164 -201 -451 -201q-285 0 -448 201q-148 187 -148 481zM426 1706h239l205 -256h-120z" />
<glyph unicode="&#xda;" horiz-adv-x="1298" d="M54 682v684h170v-684q0 -223 97 -359q112 -153 328 -153q214 0 328 153q101 134 101 359v684h170v-684q0 -294 -148 -481q-164 -201 -451 -201q-285 0 -448 201q-147 186 -147 481zM428 1450l205 256h240l-326 -256h-119z" />
<glyph unicode="&#xdb;" horiz-adv-x="1308" d="M58 682v684h170v-684q0 -223 98 -359q111 -153 327 -153q214 0 328 153q101 134 101 359v684h170v-684q0 -294 -148 -481q-164 -201 -451 -201q-285 0 -448 201q-147 186 -147 481zM295 1450l256 223h205l256 -223h-205l-154 121l-153 -121h-205z" />
<glyph unicode="&#xdc;" horiz-adv-x="1310" d="M58 682v684h170v-684q0 -223 98 -359q111 -153 327 -153q214 0 328 153q101 134 101 359v684h170v-684q0 -294 -148 -481q-164 -201 -451 -201q-285 0 -448 201q-147 186 -147 481zM398 1450v172h172v-172h-172zM740 1450v172h170v-172h-170z" />
<glyph unicode="&#xdd;" horiz-adv-x="1229" d="M12 1366h212l390 -539l389 539h214l-516 -711v-655h-170v655zM394 1450l204 256h240l-326 -256h-118z" />
<glyph unicode="&#xe0;" horiz-adv-x="956" d="M43 512q0 229 96 361q111 151 330 151q186 0 273 -125v125h153v-1024h-153v123q-52 -74 -120 -100q-58 -23 -153 -23q-219 0 -330 151q-96 132 -96 361zM197 512q0 -359 272 -359q273 0 273 359q0 358 -273 358q-272 0 -272 -358zM248 1366h237l205 -256h-118z" />
<glyph unicode="&#xe1;" horiz-adv-x="958" d="M45 512q0 229 96 361q111 151 330 151q186 0 273 -125v125h153v-1024h-153v123q-52 -74 -120 -100q-58 -23 -153 -23q-219 0 -330 151q-96 132 -96 361zM199 512q0 -359 272 -359q273 0 273 359q0 358 -273 358q-272 0 -272 -358zM250 1110l204 256h238l-323 -256h-119z " />
<glyph unicode="&#xe2;" horiz-adv-x="979" d="M56 512q0 227 95 361q112 151 330 151q187 0 273 -125v125h154v-1024h-154v123q-52 -75 -119 -100q-60 -23 -154 -23q-218 0 -330 151q-95 133 -95 361zM123 1110l256 221h205l256 -221h-205l-154 119l-153 -119h-205zM209 512q0 -359 272 -359q273 0 273 359 q0 358 -273 358q-272 0 -272 -358z" />
<glyph unicode="&#xe3;" horiz-adv-x="981" d="M56 512q0 227 95 361q112 151 330 151q187 0 273 -125v125h154v-1024h-154v123q-52 -75 -119 -100q-60 -23 -154 -23q-218 0 -330 151q-95 133 -95 361zM174 1126v76q0 82 62 150q60 66 149 66q42 0 98 -62q55 -60 101 -60q139 0 204 122v-77q0 -87 -63 -151 q-61 -64 -145 -64q-46 0 -101 60q-53 59 -100 59q-137 0 -205 -119zM209 512q0 -359 272 -359q273 0 273 359q0 358 -273 358q-272 0 -272 -358z" />
<glyph unicode="&#xe4;" horiz-adv-x="972" d="M51 512q0 229 96 361q112 151 330 151q186 0 273 -125v125h153v-1024h-153v123q-52 -74 -120 -100q-58 -23 -153 -23q-218 0 -330 151q-96 132 -96 361zM205 512q0 -359 272 -359q273 0 273 359q0 358 -273 358q-272 0 -272 -358zM221 1110v170h170v-170h-170zM563 1110 v170h170v-170h-170z" />
<glyph unicode="&#xe5;" horiz-adv-x="958" d="M45 512q0 229 96 361q111 151 330 151q186 0 273 -125v125h153v-1024h-153v123q-52 -74 -120 -100q-58 -23 -153 -23q-219 0 -330 151q-96 132 -96 361zM199 512q0 -359 272 -359q273 0 273 359q0 358 -273 358q-272 0 -272 -358zM344 1237q0 54 37 91q38 38 90 38 q53 0 91 -38t38 -91q0 -52 -38 -90q-37 -37 -91 -37q-53 0 -90 37t-37 90zM412 1237q0 -60 59 -60q60 0 60 60q0 59 -60 59q-59 0 -59 -59z" />
<glyph unicode="&#xe6;" horiz-adv-x="1687" d="M70 512q0 229 96 361q109 151 330 151q189 0 272 -125v125h154v-125q87 125 274 125q215 0 330 -151q96 -132 96 -361q0 -19 -1 -37.5t-3 -38.5h-692q24 -283 270 -283q157 0 222 113l149 -40q-103 -226 -371 -226q-171 0 -274 123v-123h-154v123q-86 -123 -272 -123 q-221 0 -330 151q-96 132 -96 361zM224 512q0 -359 272 -359t272 359q0 358 -272 358t-272 -358zM926 590h538q-25 280 -268 280t-270 -280z" />
<glyph unicode="&#xe8;" horiz-adv-x="936" d="M43 512q0 229 96 361q111 151 330 151q220 0 329 -151q97 -131 97 -361v-37q0 -10 -0.5 -19.5t-1.5 -19.5h-694q25 -283 270 -283q156 0 221 113l152 -40q-103 -226 -373 -226q-219 0 -330 151q-96 132 -96 361zM199 590h541q-28 280 -271 280q-242 0 -270 -280z M248 1366h237l205 -256h-118z" />
<glyph unicode="&#xe9;" horiz-adv-x="936" d="M45 512q0 229 96 361q111 151 330 151q220 0 329 -151q97 -131 97 -361v-37q0 -10 -0.5 -19.5t-1.5 -19.5h-694q25 -283 270 -283q156 0 221 113l152 -40q-103 -226 -373 -226q-219 0 -330 151q-96 132 -96 361zM201 590h541q-28 280 -271 280q-242 0 -270 -280z M250 1110l204 256h238l-323 -256h-119z" />
<glyph unicode="&#xea;" horiz-adv-x="956" d="M56 512q0 227 95 361q112 151 330 151q221 0 330 -151q97 -131 97 -361v-37q0 -10 -0.5 -19.5t-1.5 -19.5h-695q25 -283 270 -283q157 0 222 113l151 -40q-103 -226 -373 -226q-218 0 -330 151q-95 133 -95 361zM123 1110l256 221h205l256 -221h-205l-154 119l-153 -119 h-205zM211 590h541q-28 280 -271 280q-242 0 -270 -280z" />
<glyph unicode="&#xeb;" horiz-adv-x="948" d="M51 512q0 229 96 361q112 151 330 151t330 -151q96 -134 96 -361v-37q0 -10 -0.5 -19.5t-1.5 -19.5h-694q25 -283 270 -283q158 0 221 113l152 -40q-103 -226 -373 -226q-218 0 -330 151q-96 132 -96 361zM207 590h541q-28 280 -271 280q-242 0 -270 -280zM221 1110v170 h170v-170h-170zM563 1110v170h170v-170h-170z" />
<glyph unicode="&#xec;" d="M82 0v1024h170v-1024h-170z" />
<glyph unicode="&#xed;" d="M82 0v1024h170v-1024h-170z" />
<glyph unicode="&#xee;" d="M82 0v1024h170v-1024h-170z" />
<glyph unicode="&#xef;" d="M82 0v1024h170v-1024h-170z" />
<glyph unicode="&#xf1;" horiz-adv-x="989" d="M70 0v1024h154v-125q81 125 272 125q220 0 329 -151q97 -131 97 -361v-512h-154v512q0 358 -272 358t-272 -358v-512h-154zM189 1126v76q0 86 61 150q60 66 150 66q42 0 98 -62q55 -60 100 -60q140 0 205 122v-77q0 -87 -63 -151q-61 -64 -146 -64q-46 0 -101 60 q-53 59 -99 59q-137 0 -205 -119z" />
<glyph unicode="&#xf2;" horiz-adv-x="940" d="M43 512q0 229 96 361q111 151 330 151q220 0 329 -151q97 -131 97 -361t-97 -361q-109 -151 -329 -151q-219 0 -330 151q-96 132 -96 361zM197 512q0 -359 272 -359q273 0 273 359q0 358 -273 358q-272 0 -272 -358zM248 1366h237l205 -256h-118z" />
<glyph unicode="&#xf3;" horiz-adv-x="942" d="M45 512q0 229 96 361q111 151 330 151q220 0 329 -151q97 -131 97 -361t-97 -361q-109 -151 -329 -151q-219 0 -330 151q-96 132 -96 361zM199 512q0 -359 272 -359q273 0 273 359q0 358 -273 358q-272 0 -272 -358zM250 1110l204 256h238l-323 -256h-119z" />
<glyph unicode="&#xf4;" horiz-adv-x="962" d="M56 512q0 227 95 361q112 151 330 151q221 0 330 -151q97 -131 97 -361t-97 -361q-109 -151 -330 -151q-218 0 -330 151q-95 133 -95 361zM123 1110l256 221h205l256 -221h-205l-154 119l-153 -119h-205zM209 512q0 -359 272 -359q273 0 273 359q0 358 -273 358 q-272 0 -272 -358z" />
<glyph unicode="&#xf5;" horiz-adv-x="964" d="M56 512q0 227 95 361q112 151 330 151q221 0 330 -151q97 -131 97 -361t-97 -361q-109 -151 -330 -151q-218 0 -330 151q-95 133 -95 361zM174 1126v76q0 82 62 150q60 66 149 66q42 0 98 -62q55 -60 101 -60q139 0 204 122v-77q0 -87 -63 -151q-61 -64 -145 -64 q-46 0 -101 60q-53 59 -100 59q-137 0 -205 -119zM209 512q0 -359 272 -359q273 0 273 359q0 358 -273 358q-272 0 -272 -358z" />
<glyph unicode="&#xf6;" horiz-adv-x="956" d="M51 512q0 229 96 361q112 151 330 151q221 0 330 -151q96 -134 96 -361q0 -229 -96 -361q-109 -151 -330 -151q-218 0 -330 151q-96 132 -96 361zM205 512q0 -359 272 -359q273 0 273 359q0 358 -273 358q-272 0 -272 -358zM221 1110v170h170v-170h-170zM563 1110v170 h170v-170h-170z" />
<glyph unicode="&#xf8;" horiz-adv-x="975" d="M62 512q0 229 96 361q109 151 329 151q221 0 330 -151q97 -131 97 -361t-97 -361q-109 -151 -330 -151q-220 0 -329 151q-96 132 -96 361zM215 512q0 -359 272 -359q273 0 273 359q0 358 -273 358q-272 0 -272 -358z" />
<glyph unicode="&#xf9;" horiz-adv-x="964" d="M51 512v512h154v-512q0 -359 272 -359q273 0 273 359v512h153v-1024h-153v125q-83 -125 -273 -125q-218 0 -330 151q-96 132 -96 361zM256 1366h237l205 -256h-118z" />
<glyph unicode="&#xfa;" horiz-adv-x="966" d="M54 512v512h153v-512q0 -359 272 -359q273 0 273 359v512h154v-1024h-154v125q-83 -125 -273 -125q-218 0 -330 151q-95 133 -95 361zM258 1110l205 256h238l-324 -256h-119z" />
<glyph unicode="&#xfb;" horiz-adv-x="985" d="M62 512v512h153v-512q0 -359 272 -359q273 0 273 359v512h154v-1024h-154v125q-83 -125 -273 -125q-220 0 -329 151q-96 132 -96 361zM129 1110l256 221h205l256 -221h-205l-154 119l-153 -119h-205z" />
<glyph unicode="&#xfc;" horiz-adv-x="983" d="M62 512v512h153v-512q0 -359 272 -359q273 0 273 359v512h154v-1024h-154v125q-83 -125 -273 -125q-220 0 -329 151q-96 132 -96 361zM232 1110v170h170v-170h-170zM574 1110v170h170v-170h-170z" />
<glyph unicode="&#xfd;" horiz-adv-x="981" d="M23 1024h161l307 -844l307 844h164l-495 -1363h-164l107 297zM270 1110l205 256h240l-326 -256h-119z" />
<glyph unicode="&#xff;" horiz-adv-x="987" d="M25 1024h161l307 -844l307 844h164l-495 -1363h-164l107 297zM238 1110v170h172v-170h-172zM580 1110v170h170v-170h-170z" />
<glyph unicode="&#x152;" horiz-adv-x="1925" d="M66 682q0 298 147 481q162 203 448 203q268 0 429 -176v176h767v-172h-597v-426h512v-170h-512v-428h597v-170h-767v176q-161 -176 -429 -176q-285 0 -448 201q-147 186 -147 481zM236 682q0 -223 98 -359q111 -153 327 -153q214 0 328 153q101 134 101 359 q0 227 -101 358q-115 154 -328 154q-215 0 -327 -154q-98 -134 -98 -358z" />
<glyph unicode="&#x153;" horiz-adv-x="1687" d="M70 512q0 229 96 361q109 151 330 151q240 0 350 -182q108 182 350 182q215 0 330 -151q96 -132 96 -361q0 -19 -1 -37.5t-3 -38.5h-692q24 -283 270 -283q157 0 222 113l149 -40q-103 -226 -371 -226q-245 0 -350 180q-105 -180 -350 -180q-221 0 -330 151 q-96 132 -96 361zM224 512q0 -359 272 -359t272 359q0 358 -272 358t-272 -358zM926 590h538q-25 280 -268 280t-270 -280z" />
<glyph unicode="&#x178;" horiz-adv-x="1233" d="M14 1366h212l390 -539l389 539h214l-516 -711v-655h-170v655zM361 1450v172h172v-172h-172zM703 1450v172h170v-172h-170z" />
<glyph unicode="&#x2c6;" horiz-adv-x="803" d="M43 1450l256 223h205l256 -223h-205l-153 121l-154 -121h-205z" />
<glyph unicode="&#x2dc;" horiz-adv-x="750" d="M68 1468v74q0 44 16.5 83t44.5 68.5t66 46.5t81 17q45 0 99 -59q54 -60 102 -60q140 0 205 119v-74q0 -87 -64 -151q-60 -64 -147 -64q-42 0 -98 59q-56 60 -101 60q-139 0 -204 -119z" />
<glyph unicode="&#x2000;" horiz-adv-x="878" />
<glyph unicode="&#x2001;" horiz-adv-x="1757" />
<glyph unicode="&#x2002;" horiz-adv-x="878" />
<glyph unicode="&#x2003;" horiz-adv-x="1757" />
<glyph unicode="&#x2004;" horiz-adv-x="585" />
<glyph unicode="&#x2005;" horiz-adv-x="439" />
<glyph unicode="&#x2006;" horiz-adv-x="292" />
<glyph unicode="&#x2007;" horiz-adv-x="292" />
<glyph unicode="&#x2008;" horiz-adv-x="219" />
<glyph unicode="&#x2009;" horiz-adv-x="351" />
<glyph unicode="&#x200a;" horiz-adv-x="97" />
<glyph unicode="&#x2010;" horiz-adv-x="848" d="M82 512v170h682v-170h-682z" />
<glyph unicode="&#x2011;" horiz-adv-x="848" d="M82 512v170h682v-170h-682z" />
<glyph unicode="&#x2012;" horiz-adv-x="848" d="M82 512v170h682v-170h-682z" />
<glyph unicode="&#x2013;" horiz-adv-x="592" d="M82 512v170h426v-170h-426z" />
<glyph unicode="&#x2014;" horiz-adv-x="1104" d="M82 512v170h938v-170h-938z" />
<glyph unicode="&#x2018;" horiz-adv-x="297" d="M62 1024l32 342h103l35 -342h-170z" />
<glyph unicode="&#x2019;" horiz-adv-x="291" d="M58 1366h170l-35 -342h-103z" />
<glyph unicode="&#x201a;" horiz-adv-x="291" d="M58 170h170l-35 -337h-103z" />
<glyph unicode="&#x201c;" horiz-adv-x="574" d="M74 1024l32 342h103l35 -342h-170zM330 1024l33 342h102l35 -342h-170z" />
<glyph unicode="&#x201d;" horiz-adv-x="570" d="M72 1366h170l-35 -342h-103zM328 1366h170l-35 -342h-102z" />
<glyph unicode="&#x201e;" horiz-adv-x="570" d="M72 170h170l-35 -337h-103zM328 170h170l-35 -337h-102z" />
<glyph unicode="&#x2022;" horiz-adv-x="807" d="M62 682q0 393 340 393q342 0 342 -393q0 -391 -342 -391q-340 0 -340 391z" />
<glyph unicode="&#x2026;" horiz-adv-x="1018" d="M82 0v170h170v-170h-170zM422 0v170h172v-170h-172zM764 0v170h170v-170h-170z" />
<glyph unicode="&#x202f;" horiz-adv-x="351" />
<glyph unicode="&#x2039;" horiz-adv-x="432" d="M27 682l170 342h170l-170 -342l170 -340h-170z" />
<glyph unicode="&#x203a;" horiz-adv-x="430" d="M64 342l170 340l-170 342h170l170 -342l-170 -340h-170z" />
<glyph unicode="&#x205f;" horiz-adv-x="439" />
<glyph unicode="&#x2122;" horiz-adv-x="1059" d="M56 1302v64h448l203 -438l203 438h65v-512h-65v361l-168 -361h-70l-168 361v-361h-66v448h-160v-448h-63v448h-159z" />
<glyph unicode="&#xe000;" horiz-adv-x="1025" d="M0 0v1025h1025v-1025h-1025z" />
</font>
</defs>
</svg>
